<?xml version="1.0" encoding="utf-8"?>
<!-- Generator: Adobe Illustrator 15.1.0, SVG Export Plug-In . SVG Version: 6.00 Build 0)  -->
<!DOCTYPE svg PUBLIC "-//W3C//DTD SVG 1.1//EN" "http://www.w3.org/Graphics/SVG/1.1/DTD/svg11.dtd">
<svg version="1.1" id="Calque_1" xmlns="http://www.w3.org/2000/svg" xmlns:xlink="http://www.w3.org/1999/xlink" x="0px" y="0px"
	 width="113.439px" height="120.549px" viewBox="0 0 113.439 120.549" enable-background="new 0 0 113.439 120.549"
	 xml:space="preserve">
<path fill="#7B8C5A" d="M81.263,72.757c-3.063-1.221-5.85-3.006-8.738-4.569c-3.592-1.944-5.714-1.775-8.933,0.474
	c-3.96,2.768-8.375,5.521-13.417,4.745c-4.863-0.748-9.275-3.661-12.573-7.578c-1.544,1.976-3.134,3.907-4.821,5.749
	c-5.263,5.747-9.968,11.816-15.49,17.427c-4.769,4.845-11.691,11.984-13.324,18.852c-2.044,8.597,9.43,9.385,15.416,9.724
	c8.852,0.502,17.63,1.018,26.573,1.018c16.909,0,33.735-0.664,50.667-0.667c5.81-0.001,11.562-0.511,13.74-6.659
	c2.651-7.48-0.408-16.412-3.074-23.592c-2.061-5.552-4.105-11.126-6.293-16.641C94.802,74.067,88.532,75.655,81.263,72.757z"/>
<path fill="#7B8C5A" d="M56.442,66.153c2.894-1.679,5.968-4.825,9.411-5.301c4.25-0.587,7.436,0.863,11.106,2.938
	c4.951,2.799,10.038,5.836,15.951,4.246c2.025-0.545,3.949-1.546,5.807-2.538c-0.42-0.991-0.824-1.99-1.26-2.975
	c-3.231-7.298-5.762-15.21-10.066-21.918c-2.563-3.993-8.536-13.849-14.684-11.343l1.666,0.334
	c-3.936,0.492-9.015,5.326-12.258,7.592c-3.614,2.525-6.877,5.805-9.742,9.15c-3.953,4.614-7.449,9.635-11.051,14.553
	C44.989,65.932,50.891,69.374,56.442,66.153z"/>
<g>
	<path fill="#697A48" d="M56.442,66.153c2.894-1.679,5.968-4.825,9.411-5.301c4.25-0.587,7.436,0.863,11.106,2.938
		c4.951,2.799,10.038,5.836,15.951,4.246c1.301-0.35,2.558-0.895,3.785-1.498c-0.945-2.782-2.559-5.429-3.801-8.081
		c-2.61-5.577-4.931-11.232-7.937-16.606c-2.78,6.259-6.802,10.385-13.434,13.23c-4.979,2.137-10.643,3.175-15.998,3.682
		c-3.317,0.314-7.812,0.5-10.819-0.5h-0.5c-0.388,1-1.723,2.126-2.736,3.087C45.147,66.277,50.967,69.33,56.442,66.153z"/>
	<path fill="#697A48" d="M81.263,72.757c-3.063-1.221-5.85-3.006-8.738-4.569c-3.592-1.944-5.714-1.775-8.933,0.474
		c-3.96,2.768-8.375,5.521-13.417,4.745c-5.254-0.808-9.977-4.147-13.34-8.547c-1.214,1.981-2.27,4.159-3.544,6.069
		c-1.075,1.613-4.328,7.433-5.584,7.334l-1.333,1.666c7.688-8.35,17.221,3.185,23.665,5.768c5.485,2.199,11.001-2.348,16.668-0.184
		c10.591,4.047,14.333,24.584-3.407,30.59c-1.194,0.404-5.599,0.941-5.746,2.118c8.191,1.401,29.47,0.141,37.755-0.607
		c3.167-0.286,6.682-0.104,9.731-0.943c2.886-0.795,3.522-1.65,4.018-5.066c1.233-8.526-1.747-16.79-4.609-24.599
		c-1.782-4.859-2.86-10.46-5.534-15.013C93.387,74.362,87.719,75.332,81.263,72.757z"/>
</g>
<path fill="#FFB47B" d="M80.457,4.763c-0.365,4.044-1.439,8.213-1.961,12.213c9.552-0.507,16.706,13.811,27.186,8.475
	c-2.155-2.313-4.609-4.46-6.293-7.188c-1.691-2.74-3.059-5.73-4.682-8.486c-2.269-3.85-11.351-9.047-15-4.014"/>
<g>
	<path fill="#39422A" d="M61.777,42.74c2.966-3.299,6.96-8.441,11.715-9.244c0.512,0.101,1.029,0.081,1.496-0.076
		c5.262,0.586,8.368,11.408,9.993,15.056c2.866,6.434,5.667,12.905,8.376,19.413c1.891-0.573,3.697-1.501,5.441-2.433
		c-1.941-4.612-3.924-9.207-5.908-13.793c-3.273-7.567-6.709-20.797-15.633-23.711c0.625-2.952,1.388-5.872,2.17-8.788
		c0.025-0.005,0.05-0.002,0.076-0.008c4.108-0.838,9.042,6.38,12.658,8.177c5.643,2.804,12.168,2.227,18.212,1.597
		c2.571-0.268,4.587-4.293,1.515-5.591c-3.535-1.492-7.426-3.271-9.798-6.412c-2.16-2.86-2.069-7.105-4.126-10.177
		c-3.361-5.02-11.396-5.933-16.793-6.713c-1.49-0.216-2.639,0.555-3.259,1.597c-0.366,0.351-0.646,0.838-0.766,1.498
		c-1.509,8.315-4.319,16.319-5.94,24.607c-4.931,1.313-9.336,6.06-12.459,9.403c-6.464,6.919-12.796,13.989-19.085,21.077
		c0.935,1.794,2.159,3.507,3.584,4.956C49.37,56.315,55.631,49.573,61.777,42.74z M82.613,6.31c2.131,0.372,4.238,0.826,6.32,1.483
		c4.539,1.433,5.27,4.871,6.51,8.922c0.775,2.531,2.275,4.589,4.149,6.302c-3.476-0.565-6.715-1.963-9.778-4.887
		c-2.673-2.552-5.41-4.609-8.805-4.934C81.601,10.915,82.148,8.622,82.613,6.31z"/>
	<path fill="#39422A" d="M99.083,82.119c3.454,8.974,7.681,18.97,7.95,28.712c0.024,0.859-0.023,1.675-0.311,2.432
		c-0.226,0.089-0.6,0.227-1.163,0.319c-3.693,0.608-7.589,0.528-11.318,0.613c-24.11,0.551-48.228-0.824-72.337-0.807
		c-2.104,0.002-17.105-0.048-15.81-2.818c6.174-12.237,16.465-22.809,25.099-33.369c2.644-3.234,5.356-6.411,8.105-9.557
		c-1.438-1.404-2.716-2.989-3.798-4.695C29.253,70.102,23.423,77.566,17.38,84.89c-5.928,7.186-12.243,14.279-16.467,22.65
		c-3.468,7.424,3.619,10.617,9.905,11.396c10.296,1.275,20.956,0.351,31.298,0.518c20.688,0.335,41.709,2.132,62.365,0.247
		c5.786-0.528,8.458-2.713,8.552-8.871c0.144-9.359-4.047-19.241-7.235-27.849c-1.491-4.024-3.083-8.014-4.71-11.989
		c-1.826,0.897-3.662,1.664-5.525,2.234C96.761,76.182,97.937,79.145,99.083,82.119z"/>
	<path fill="#39422A" d="M81.63,83.083c0.454,1.009,0.112,0.203,0.039-0.058c-0.115-0.407-0.195-0.823-0.273-1.238
		c-0.018-0.113-0.027-0.18-0.035-0.225c-0.027-0.237-0.049-0.476-0.064-0.714c-0.01-0.188-0.015-0.378-0.014-0.566
		c-0.002-0.141,0.113-0.99-0.017-0.222c0.271-1.611-0.399-3.225-2.095-3.69c-1.453-0.4-3.42,0.48-3.69,2.095
		c-0.425,2.531-0.089,5.299,0.968,7.646c0.672,1.492,2.808,1.837,4.105,1.077C82.074,86.296,82.301,84.574,81.63,83.083z"/>
	<path fill="#39422A" d="M95.803,88.084c-0.437-1.755-0.917-3.499-1.408-5.24c-1.047-3.718-6.837-2.137-5.785,1.596
		c0.49,1.741,0.971,3.484,1.408,5.24c0.395,1.586,2.144,2.521,3.69,2.095C95.313,91.333,96.199,89.67,95.803,88.084z"/>
	<path fill="#39422A" d="M88.553,97.592c-0.017-0.052-0.042-0.13-0.089-0.259c-0.146-0.403-0.256-0.82-0.364-1.235
		c-0.2-0.758-0.347-1.53-0.501-2.299c-0.321-1.604-2.199-2.505-3.689-2.095c-1.66,0.456-2.417,2.088-2.096,3.69
		c0.374,1.869,0.813,3.65,1.635,5.382c0.702,1.477,2.785,1.85,4.105,1.077c1.498-0.878,1.777-2.628,1.076-4.104
		C88.595,97.675,88.576,97.636,88.553,97.592z"/>
	<path fill="#39422A" d="M95.576,99.371c-1.658,0.456-2.416,2.088-2.095,3.69c0.374,1.869,0.811,3.651,1.636,5.382
		c0.703,1.477,2.783,1.851,4.104,1.077c1.498-0.878,1.78-2.629,1.076-4.104c-0.035-0.075-0.055-0.115-0.077-0.159
		c-0.017-0.053-0.044-0.131-0.089-0.256c-0.145-0.403-0.255-0.82-0.363-1.235c-0.2-0.759-0.347-1.531-0.501-2.3
		C98.945,99.862,97.067,98.96,95.576,99.371z"/>
</g>
</svg>
